<?xml version="1.0" encoding="utf-8"?>
<!-- Generator: Adobe Illustrator 25.2.3, SVG Export Plug-In . SVG Version: 6.00 Build 0)  -->
<svg version="1.1" id="Layer_1" xmlns="http://www.w3.org/2000/svg" xmlns:xlink="http://www.w3.org/1999/xlink" x="0px" y="0px"
	 viewBox="0 0 512 512" style="enable-background:new 0 0 512 512;" xml:space="preserve">
<style type="text/css">
	.st0{fill:#D72679;}
</style>
<path class="st0" d="M-43.8,572c-139.5,0-278.9-1.1-418.4,0.6c-50.9,0.6-77.2-34.3-76.9-76.9c1.1-174,0.5-348.1,0.6-522.2
	c0-51,25.8-76.7,76.5-76.7c278.9,0,557.8,0,836.7,0.1c54.2,0,78.8,24.9,78.8,79.2c0,173-0.6,346,0.5,519
	c0.3,44.5-27.7,78.1-76.4,77.5C237.3,570.9,96.8,572-43.8,572z M-41.9,516.9c133.6,0,267.2,0,400.8,0c30.5,0,38.8-8.3,38.8-38.8
	c0-160.2,0-320.4,0-480.6c0-33.7-7.6-41.5-41-41.5c-266.1,0-532.2,0-798.3,0c-33.8,0-41,7.2-41,41.4c-0.1,160.7-0.1,321.5-0.1,482.2
	c0,28.7,8.6,37.3,37,37.3C-311.2,516.9-176.5,516.9-41.9,516.9z"/>
<path class="st0" d="M-165.1,607c0.5,4.1,1.1,7.1,1.3,10.2c1.4,18.1,6.4,23.7,24.6,24.3c22.3,0.7,44.7,0.4,67.1,0.4
	c39.9,0,79.9,0.1,119.8,0c24-0.1,26.7-3.1,31.2-26c0.8-3.9,8-9.2,12.4-9.3c27.1-0.9,54.3-0.4,81.5-0.4c110.2,0,220.4,0.1,330.7-0.1
	c20.4,0,37.8,4.1,48.9,23.5c1.9,3.3,8.7,5.4,13.2,5.5c50.6,0.4,101.2,0.2,151.7,0.5c8,0,12.8-1.8,14.2-10.8
	c2.1-13.4,12.3-18.4,24.4-18.4c57-0.3,113.9-0.3,170.9,0c13.5,0.1,23.2,5.8,26.8,20.3c0.9,3.5,6.7,8.3,10.3,8.3
	c47.4,0.6,94.8,1.2,142.2,0.1c25.1-0.6,41.1-19.3,41.2-46c0.2-77.2-0.2-154.4-0.3-231.6c0-14.3,0.4-28.7,1.1-43
	c0.4-8.8-2.4-12.8-11.7-15.3c-34.3-9.2-54.1-39.8-49.1-73.8c4.7-32.1,32.8-56.5,65.4-56.6c32.3-0.1,60.3,23.3,65.4,54.6
	c5.5,33.8-13.9,66.3-47.1,75.2c-12.5,3.3-14.2,9.5-14.1,20.2c0.9,87.8,1.6,175.6,2.2,263.3c0.2,37.6-17.3,60.8-48.2,64.5
	c-7.4,0.9-14.9,0.6-22.3,0.6c-44.1,0-88.3,0-131.9,0c-10.3,27.2-10.4,27.3-38.1,27.4c-52.2,0-104.4,0.1-156.5,0
	c-24.3,0-26.7-2-33.6-27.3c-14.1,0-28.9,0-43.6,0c-39.4,0-78.8-0.4-118.2,0.5c-5.9,0.1-13.4,4.7-17.2,9.5
	c-8.5,10.9-18.4,17.3-32.4,17.3c-4.8,0-9.6,0.1-14.4,0.1c-364.2,0-728.4,0-1092.6,0c-5.9,0-11.8,0.3-17.6-0.4
	c-16.9-1.9-29.1-14.1-30.4-29.8c-1.4-16.7,7.2-30,24.1-34.8c8-2.3,16.8-3.2,25.2-3.2c135.8-0.2,271.6-0.1,407.3,0
	C-176.1,606.2-170.9,606.7-165.1,607z"/>
</svg>
